<svg xmlns="http://www.w3.org/2000/svg" xmlns:xlink="http://www.w3.org/1999/xlink" version="1.1" x="0px" y="0px" viewBox="0 0 100 125" enable-background="new 0 0 100 100" xml:space="preserve"><path d="M52.5,34.749c-4.041,0-7.665-1.464-10.771-4.351c-0.025-0.023-0.05-0.048-0.073-0.072C38.898,27.384,37.5,23.843,37.5,19.8  c0-2.599,0.578-5.034,1.717-7.239c0.626-1.215,1.446-2.371,2.435-3.434c0.025-0.025,0.051-0.052,0.077-0.076  C44.835,6.164,48.459,4.7,52.5,4.7c4.176,0,7.705,1.485,10.488,4.417c1.043,1.006,1.965,2.15,2.695,3.354  c1.25,2.269,1.866,4.716,1.866,7.328c0,4.072-1.551,7.632-4.608,10.58C60.205,33.264,56.676,34.749,52.5,34.749z M43.809,28.236  c2.56,2.363,5.403,3.513,8.691,3.513c3.368,0,6.087-1.14,8.313-3.481c2.529-2.441,3.737-5.196,3.737-8.468  c0-2.101-0.493-4.062-1.464-5.827c-0.564-0.93-1.324-1.871-2.229-2.744C58.587,8.84,55.868,7.7,52.5,7.7  c-3.287,0-6.13,1.148-8.689,3.511c-0.786,0.852-1.434,1.768-1.928,2.726C40.965,15.713,40.5,17.686,40.5,19.8  C40.5,23.084,41.583,25.844,43.809,28.236z"/><path d="M51.4,95.3c-0.34,0-0.68-0.114-0.958-0.345C38.345,84.938,25.96,79.365,13.632,78.395c-0.756-0.059-1.349-0.674-1.381-1.432  l-1.95-46.15c-0.019-0.434,0.152-0.854,0.467-1.152c0.314-0.298,0.749-0.441,1.175-0.404c13.751,1.322,27.027,6.135,39.477,14.307  c11.555-7.211,23.887-11.352,36.668-12.309c0.432-0.036,0.85,0.119,1.157,0.418c0.308,0.299,0.473,0.716,0.454,1.145l-2.051,45.801  c-0.033,0.757-0.627,1.369-1.383,1.428c-12.505,0.971-23.898,5.975-33.867,14.873C52.115,95.172,51.757,95.3,51.4,95.3z   M15.193,75.525c12.173,1.265,24.331,6.746,36.173,16.309C61.25,83.32,72.454,78.395,84.71,77.172l1.915-42.781  c-11.986,1.176-23.557,5.284-34.417,12.223c-0.502,0.321-1.147,0.314-1.644-0.018c-11.748-7.873-24.251-12.635-37.192-14.17  L15.193,75.525z"/><text x="0" y="115" fill="#000000" font-size="5px" font-weight="bold" font-family="'Helvetica Neue', Helvetica, Arial-Unicode, Arial, Sans-serif">Created by Saeful Muslim</text><text x="0" y="120" fill="#000000" font-size="5px" font-weight="bold" font-family="'Helvetica Neue', Helvetica, Arial-Unicode, Arial, Sans-serif">from the Noun Project</text></svg>